<svg xmlns="http://www.w3.org/2000/svg" width="2048" height="2048">
  <path d="M 92.998313,80.925084 2.320661e-5,548.91638 l 102.49810679339,0 71.49868,-316.9941 123.49773,316.9941 119.4978,0 108.498,-467.991297 -102.49811,0 -67.49876,284.994697 -127.49765,-284.994697 -134.997507,0 z m 534.490137,3.9999 -93.99826,467.991397 120.99776,0 39.4993,-198.4972 205.4962,0 17.9997,-90.9967 -204.9963,0 16.9997,-87.4992 221.4959,0 18.4997,-90.998297 -341.9937,0 z m 859.98425,82.499297 c -88.5107,2.3535 -185.2085,31.2458 -283.9948,77.9985 -197.5733,93.5039 -405.59855,260.2512 -569.98955,448.99016 -163.86162,188.13574 -312.43248,420.01946 -394.99272,636.48906 -41.2802,108.2348 -66.80037,212.6985 -66.99877,307.9943 -0.1824,95.2975 27.01918,183.0767 88.49837,245.9955 61.8907,63.3396 146.6389,86.624 237.99561,81.4977 91.35672,-5.1215 190.91421,-37.8649 293.49461,-87.9984 49.3573,-24.1211 99.3066,-52.7654 148.9972,-84.4976 16.7291,-6.0159 33.6085,-11.9678 50.4991,-18.9997 206.29515,-85.8784 423.35165,-245.3938 588.48925,-434.9919 162.3224,-186.3662 312.7011,-387.30331 397.9926,-573.98948 42.6458,-93.34227 69.3224,-183.08142 70.4987,-267.49584 1.1776,-84.4113 -25.1693,-164.253 -85.4984,-225.9959 -61.0957,-62.5252 -145.0629,-91.3119 -236.9956,-93.9982 -35.8831,-1.0464 -73.2416,1.8799 -111.498,7.9998 -39.4133,-14.0557 -82.012,-20.1836 -126.4976,-18.998 z m 236.4956,90.4975 c 76.6061,2.4192 137.4051,24.8763 181.4966,69.9987 45.0541,46.1096 63.4482,100.8734 62.4989,168.9969 -0.9536,68.1235 -23.2871,149.07566 -62.9988,235.99565 -79.4235,173.84 -226.3404,371.18837 -385.9929,554.49057 -60.5065,69.4675 -128.8437,135.2247 -200.9963,193.9965 20.2967,-21.3309 39.4696,-43.1513 58.4989,-65.0005 163.9711,-188.2589 305.8892,-413.3667 380.493,-623.48767 37.3022,-105.06046 57.564,-206.241 54.499,-298.99445 -2.9859,-90.3584 -29.8697,-174.1856 -87.4984,-235.9957 z m -122.9978,11.9998 c 24.5266,10.1486 46.533,24.0891 65.4988,43.5 44.5474,45.5895 65.9611,106.7116 68.4988,183.4958 2.5369,76.78419 -15.2503,168.12651 -49.9991,265.9951 -69.4976,195.73879 -205.9954,415.08832 -363.9933,596.48982 -3.4609,3.9727 -6.9892,8.0382 -10.4998,11.9998 1.3235,-1.888 2.692,-3.5808 4,-5.5007 21.7578,-31.9402 42.8604,-66.7204 62.4988,-102.9981 -83.6145,57.5477 -200.007,130.716 -304.4944,155.9971 -118.69595,28.7179 -214.26635,5.1983 -270.99505,-20.5004 -75.7036,-34.297 -64.9703,-181.1103 -18.9996,-284.9932 l 666.48775,-41.9992 c 75.7237,-184.755 115.0315,-328.50275 14.9997,-424.99377 C 1418.5736,611.63367 1324.6288,606.44017 1275.9766,609.9153 1111.4983,621.66388 922.12035,719.95327 775.98575,905.90985 652.47595,1063.075 589.82467,1233.203 601.48894,1358.4007 c 6.00261,64.4132 26.55711,121.7834 72.99861,156.4979 52.8059,39.4713 132.1003,48.7335 211.9961,52.9991 108.2243,5.7791 225.58225,-17.5885 324.49415,-92.4975 -95.5751,93.0926 -202.015,178.6719 -308.49445,246.9938 -74.7334,25.8075 -145.2864,39.9897 -206.4962,39.5001 -76.8507,-0.6432 -137.40206,-22.3708 -181.49661,-67.4996 -44.86045,-45.9095 -63.85642,-101.3837 -62.99884,-171.496 0.86239,-70.1139 23.37989,-153.6628 62.99884,-242.9955 79.23902,-178.6639 226.08001,-380.96423 385.49291,-563.98965 156.59845,-179.79347 366.28675,-328.20197 558.48975,-403.49337 49.3165,-19.318 96.9674,-33.3818 142.4973,-42.4984 z m -274.4949,14.4989 c -174.3012,87.0528 -348.80525,220.34 -486.99105,378.99464 -162.5616,186.63975 -313.09391,392.56398 -397.99266,583.98928 -42.4485,95.7118 -68.94689,187.9837 -69.99871,273.9949 -1.05598,86.0096 24.97522,167.0545 85.49842,228.9942 56.51385,57.8373 133.28676,85.4096 216.99605,89.9983 -65.04055,24.6412 -126.55661,39.4745 -180.49672,42.5 -77.44305,4.3456 -137.50611,-13.9901 -180.99667,-58.4997 -43.90271,-44.9304 -64.16394,-106.1244 -63.99882,-185.4958 0.1824,-79.3713 22.27271,-174.9583 60.99888,-276.4957 77.45153,-203.073 221.38632,-429.46245 379.49303,-610.98711 157.578,-180.91986 360.06055,-342.47211 544.98995,-429.99211 31.3714,-14.8477 62.5057,-26.7275 92.4983,-37.0009 z M 1208.4778,734.4122 c 35.5693,-1.33917 80.2214,3.27514 106.998,17.00129 71.2506,36.52413 45.6187,128.53683 6.4999,228.99418 -189.797,13.53735 -362.28855,16.01411 -485.49105,23.99953 16.0093,-27.74986 19.7986,-46.05512 38.9992,-71.49785 96.0576,-127.27926 226.28695,-194.46682 332.99395,-198.49715 z"/>
</svg>
